ply
format ascii 1.0
comment Created by Blender 2.90.1 - www.blender.org
element vertex 16
property float x
property float y
property float z
property float nx
property float ny
property float nz
property float s
property float t
element face 12
property list uchar uint vertex_indices
end_header
0.577350 -0.577350 0.577350 0.577349 -0.577349 0.577349 0.000000 1.000000
-0.577350 -0.577350 -0.577350 -0.577349 -0.577349 -0.577349 1.000000 0.000000
0.577350 -0.577350 -0.577350 0.577349 -0.577349 -0.577349 0.000000 0.000000
0.577350 0.577350 -0.577350 0.577349 0.577349 -0.577349 0.000000 1.000000
0.577350 -0.577350 0.577350 0.577349 -0.577349 0.577349 1.000000 0.000000
-0.577350 0.577350 -0.577350 -0.577349 0.577349 -0.577349 0.000000 1.000000
-0.577350 -0.577350 0.577350 -0.577349 -0.577349 0.577349 1.000000 0.000000
-0.577350 0.577350 0.577350 -0.577349 0.577349 0.577349 1.000000 1.000000
0.577350 0.577350 0.577350 0.577349 0.577349 0.577349 0.000000 1.000000
-0.577350 0.577350 -0.577350 -0.577349 0.577349 -0.577349 1.000000 0.000000
-0.577350 -0.577350 0.577350 -0.577349 -0.577349 0.577349 1.000000 1.000000
-0.577350 0.577350 -0.577350 -0.577349 0.577349 -0.577349 1.000000 1.000000
0.577350 0.577350 0.577350 0.577349 0.577349 0.577349 1.000000 1.000000
-0.577350 -0.577350 -0.577350 -0.577349 -0.577349 -0.577349 0.000000 0.000000
0.577350 -0.577350 0.577350 0.577349 -0.577349 0.577349 0.000000 0.000000
0.577350 0.577350 -0.577350 0.577349 0.577349 -0.577349 0.000000 0.000000
3 0 1 2
3 1 3 2
3 3 4 2
3 5 6 7
3 6 8 7
3 8 9 7
3 0 10 1
3 1 11 3
3 3 12 4
3 5 13 6
3 6 14 8
3 8 15 9
